<?xml version="1.0" encoding="UTF-8"?>
<svg id="Camada_1" data-name="Camada 1" xmlns="http://www.w3.org/2000/svg" viewBox="0 0 777.8 730.53">
  <defs>
    <style>
      .cls-1 {
        fill: none;
        stroke: #454a5e;
        stroke-linejoin: bevel;
        stroke-width: 4.52px;
      }

      .cls-2 {
        fill: #454a5e;
      }

      .cls-2, .cls-3, .cls-4, .cls-5 {
        stroke-width: 0px;
      }

      .cls-3 {
        fill: #eceae2;
      }

      .cls-4 {
        fill: #e7d827;
      }

      .cls-5 {
        fill: #00cda0;
      }
    </style>
  </defs>
  <g>
    <g>
      <g>
        <rect class="cls-3" x="257.56" y="32.26" width="427.88" height="241.67"/>
        <path class="cls-2" d="m685.44,274.75h-427.88c-.45,0-.82-.37-.82-.82V32.26c0-.45.37-.82.82-.82h427.88c.45,0,.82.37.82.82v241.67c0,.45-.37.82-.82.82Zm-427.06-1.64h426.24V33.08h-426.24v240.03Z"/>
      </g>
      <path class="cls-2" d="m358.21,60.44c-.45,0-.82-.37-.82-.82s.37-.82.82-.82c16.68,0,30.24-12.82,30.24-28.58s-13.57-28.58-30.24-28.58-30.24,12.82-30.24,28.58c0,.45-.37.82-.82.82s-.82-.37-.82-.82c0-16.66,14.3-30.22,31.88-30.22s31.88,13.56,31.88,30.22-14.3,30.22-31.88,30.22Z"/>
      <path class="cls-2" d="m471.5,60.44c-.45,0-.82-.37-.82-.82s.37-.82.82-.82c16.68,0,30.24-12.82,30.24-28.58s-13.57-28.58-30.24-28.58-30.24,12.82-30.24,28.58c0,.45-.37.82-.82.82s-.82-.37-.82-.82c0-16.66,14.3-30.22,31.88-30.22s31.88,13.56,31.88,30.22-14.3,30.22-31.88,30.22Z"/>
      <path class="cls-2" d="m584.79,60.44c-.45,0-.82-.37-.82-.82s.37-.82.82-.82c16.68,0,30.24-12.82,30.24-28.58s-13.57-28.58-30.24-28.58-30.24,12.82-30.24,28.58c0,.45-.37.82-.82.82s-.82-.37-.82-.82c0-16.66,14.3-30.22,31.88-30.22s31.88,13.56,31.88,30.22-14.3,30.22-31.88,30.22Z"/>
      <g>
        <path class="cls-2" d="m373.23,148.57h-68.95c-.45,0-.82-.37-.82-.82v-65.26c0-.45.37-.82.82-.82h68.95c.45,0,.82.37.82.82v65.26c0,.45-.37.82-.82.82Zm-68.13-1.64h67.31v-63.62h-67.31v63.62Z"/>
        <g>
          <rect class="cls-3" x="389.27" y="82.49" width="68.95" height="65.26"/>
          <path class="cls-2" d="m458.21,148.57h-68.95c-.45,0-.82-.37-.82-.82v-65.26c0-.45.37-.82.82-.82h68.95c.45,0,.82.37.82.82v65.26c0,.45-.37.82-.82.82Zm-68.13-1.64h67.31v-63.62h-67.31v63.62Z"/>
        </g>
        <rect class="cls-2" x="474.25" y="82.49" width="68.95" height="65.26"/>
        <g>
          <rect class="cls-3" x="559.23" y="82.49" width="68.95" height="65.26"/>
          <path class="cls-2" d="m628.18,148.57h-68.95c-.45,0-.82-.37-.82-.82v-65.26c0-.45.37-.82.82-.82h68.95c.45,0,.82.37.82.82v65.26c0,.45-.37.82-.82.82Zm-68.13-1.64h67.31v-63.62h-67.31v63.62Z"/>
        </g>
        <g>
          <rect class="cls-3" x="644.22" y="82.49" width="68.95" height="65.26"/>
          <path class="cls-2" d="m713.16,148.57h-68.95c-.45,0-.82-.37-.82-.82v-65.26c0-.45.37-.82.82-.82h68.95c.45,0,.82.37.82.82v65.26c0,.45-.37.82-.82.82Zm-68.13-1.64h67.31v-63.62h-67.31v63.62Z"/>
        </g>
      </g>
      <g>
        <path class="cls-2" d="m373.23,225.89h-68.95c-.45,0-.82-.37-.82-.82v-65.26c0-.45.37-.82.82-.82h68.95c.45,0,.82.37.82.82v65.26c0,.45-.37.82-.82.82Zm-68.13-1.64h67.31v-63.63h-67.31v63.63Z"/>
        <g>
          <rect class="cls-3" x="389.27" y="159.81" width="68.95" height="65.26"/>
          <path class="cls-2" d="m458.21,225.89h-68.95c-.45,0-.82-.37-.82-.82v-65.26c0-.45.37-.82.82-.82h68.95c.45,0,.82.37.82.82v65.26c0,.45-.37.82-.82.82Zm-68.13-1.64h67.31v-63.63h-67.31v63.63Z"/>
        </g>
        <g>
          <rect class="cls-3" x="474.65" y="159.81" width="68.95" height="65.26"/>
          <path class="cls-2" d="m543.59,225.89h-68.95c-.45,0-.82-.37-.82-.82v-65.26c0-.45.37-.82.82-.82h68.95c.45,0,.82.37.82.82v65.26c0,.45-.37.82-.82.82Zm-68.13-1.64h67.31v-63.63h-67.31v63.63Z"/>
        </g>
        <g>
          <rect class="cls-3" x="559.23" y="159.81" width="68.95" height="65.26"/>
          <path class="cls-2" d="m628.18,225.89h-68.95c-.45,0-.82-.37-.82-.82v-65.26c0-.45.37-.82.82-.82h68.95c.45,0,.82.37.82.82v65.26c0,.45-.37.82-.82.82Zm-68.13-1.64h67.31v-63.63h-67.31v63.63Z"/>
        </g>
        <g>
          <rect class="cls-3" x="644.22" y="159.81" width="68.95" height="65.26"/>
          <path class="cls-2" d="m713.16,225.89h-68.95c-.45,0-.82-.37-.82-.82v-65.26c0-.45.37-.82.82-.82h68.95c.45,0,.82.37.82.82v65.26c0,.45-.37.82-.82.82Zm-68.13-1.64h67.31v-63.63h-67.31v63.63Z"/>
        </g>
      </g>
      <g>
        <g>
          <rect class="cls-3" x="304.28" y="237.12" width="68.95" height="65.26"/>
          <path class="cls-2" d="m373.23,303.2h-68.95c-.45,0-.82-.37-.82-.82v-65.26c0-.45.37-.82.82-.82h68.95c.45,0,.82.37.82.82v65.26c0,.45-.37.82-.82.82Zm-68.13-1.64h67.31v-63.62h-67.31v63.62Z"/>
        </g>
        <g>
          <rect class="cls-3" x="389.27" y="237.12" width="68.95" height="65.26"/>
          <path class="cls-2" d="m458.21,303.2h-68.95c-.45,0-.82-.37-.82-.82v-65.26c0-.45.37-.82.82-.82h68.95c.45,0,.82.37.82.82v65.26c0,.45-.37.82-.82.82Zm-68.13-1.64h67.31v-63.62h-67.31v63.62Z"/>
        </g>
        <g>
          <rect class="cls-3" x="474.25" y="237.12" width="68.95" height="65.26"/>
          <path class="cls-2" d="m543.2,303.2h-68.95c-.45,0-.82-.37-.82-.82v-65.26c0-.45.37-.82.82-.82h68.95c.45,0,.82.37.82.82v65.26c0,.45-.37.82-.82.82Zm-68.13-1.64h67.31v-63.62h-67.31v63.62Z"/>
        </g>
      </g>
    </g>
    <g>
      <g>
        <g>
          <path class="cls-3" d="m119.93,659.26h570.34v70.45H119.93c-10.98,0-19.9-8.92-19.9-19.9v-30.65c0-10.98,8.92-19.9,19.9-19.9Z"/>
          <path class="cls-2" d="m690.26,730.53H119.92c-11.43,0-20.72-9.3-20.72-20.72v-30.65c0-11.43,9.3-20.72,20.72-20.72h570.34c.45,0,.82.37.82.82v70.45c0,.45-.37.82-.82.82Zm-570.34-70.45c-10.52,0-19.08,8.56-19.08,19.09v30.65c0,10.52,8.56,19.08,19.08,19.08h569.52v-68.82H119.92Z"/>
        </g>
        <path class="cls-2" d="m690.26,724.36h-342.08c-10.86,0-19.69-6.08-19.69-13.55v-32.65c0-7.47,8.83-13.55,19.69-13.55h342.08c.45,0,.82.37.82.82s-.37.82-.82.82h-342.08c-9.95,0-18.05,5.34-18.05,11.91v32.65c0,6.57,8.1,11.91,18.05,11.91h342.08c.45,0,.82.37.82.82s-.37.82-.82.82Z"/>
        <path class="cls-2" d="m503.66,709.96h-125.39c-.45,0-.82-.37-.82-.82s.37-.82.82-.82h125.39c.45,0,.82.37.82.82s-.37.82-.82.82Z"/>
      </g>
      <g>
        <g>
          <path class="cls-3" d="m124.26,563.92h566v95.34H124.26c-13.38,0-24.24-10.86-24.24-24.24v-46.86c0-13.38,10.86-24.24,24.24-24.24Z"/>
          <path class="cls-2" d="m690.26,660.08H124.26c-13.82,0-25.06-11.24-25.06-25.06v-46.86c0-13.82,11.24-25.06,25.06-25.06h566c.45,0,.82.37.82.82v95.34c0,.45-.37.82-.82.82Zm-566-95.34c-12.91,0-23.42,10.51-23.42,23.42v46.86c0,12.91,10.51,23.42,23.42,23.42h565.18v-93.71H124.26Z"/>
        </g>
        <path class="cls-2" d="m690.26,650.93h-342.08c-10.86,0-19.69-8.84-19.69-19.7v-39.28c0-10.86,8.83-19.7,19.69-19.7h342.08c.45,0,.82.37.82.82s-.37.82-.82.82h-342.08c-9.95,0-18.05,8.1-18.05,18.06v39.28c0,9.96,8.1,18.06,18.05,18.06h342.08c.45,0,.82.37.82.82s-.37.82-.82.82Z"/>
      </g>
      <g>
        <g>
          <path class="cls-3" d="m27.98,468.41h566v95.34H27.98c-13.38,0-24.24-10.86-24.24-24.24v-46.86c0-13.38,10.86-24.24,24.24-24.24Z"/>
          <path class="cls-2" d="m593.98,564.57H27.98c-13.82,0-25.06-11.24-25.06-25.06v-46.86c0-13.82,11.24-25.06,25.06-25.06h566c.45,0,.82.37.82.82v95.34c0,.45-.37.82-.82.82ZM27.98,469.23c-12.91,0-23.42,10.51-23.42,23.42v46.86c0,12.91,10.51,23.42,23.42,23.42h565.18v-93.71H27.98Z"/>
        </g>
        <path class="cls-2" d="m593.98,555.41H251.9c-10.86,0-19.69-8.84-19.69-19.7v-39.28c0-10.86,8.83-19.7,19.69-19.7h342.08c.45,0,.82.37.82.82s-.37.82-.82.82H251.9c-9.95,0-18.05,8.1-18.05,18.06v39.28c0,9.96,8.1,18.06,18.05,18.06h342.08c.45,0,.82.37.82.82s-.37.82-.82.82Z"/>
        <rect class="cls-2" x="23.4" y="487.88" width="163.43" height="54.25"/>
      </g>
    </g>
    <g>
      <g>
        <g>
          <path class="cls-3" d="m371.33,237.47s45.1-2,81.75,15.01c49.7,23.07,129.67,95.07,109.94,136.11-24.87,51.71-142.83,1-142.83,1l-97.72,2s-126.12,50.72-152.22,9.01c-26.31-42.03,56.53-117.74,107.12-144.11,44.16-23.02,93.97-19.01,93.97-19.01Z"/>
          <path class="cls-2" d="m212.74,417.94c-21.68,0-36.15-5.64-43.2-16.91-5.52-8.82-6.62-19.54-3.27-31.86,11.52-42.36,71.69-93.08,110.7-113.41,43.24-22.54,92.49-19.25,94.36-19.11,1.76-.07,46.22-1.56,82.08,15.09,41.07,19.06,96.4,67.06,110.15,105.45,4.38,12.22,4.44,22.9.18,31.76-5.79,12.05-17.03,19.59-33.41,22.42-12.97,2.24-29.2,1.54-48.22-2.08-31.06-5.92-59.66-17.85-62.09-18.87l-97.4,1.99c-2.34.93-33.03,12.99-66.32,20.13-16.8,3.6-31.33,5.4-43.57,5.4Zm149.93-179.9c-16.13,0-52.27,2.15-84.93,19.17-20.81,10.85-45.34,29-65.6,48.57-23.54,22.72-39.26,45.39-44.27,63.82-3.23,11.86-2.19,22.15,3.07,30.56,25.45,40.66,149.97-8.83,151.23-9.33.09-.04.19-.06.29-.06l97.72-2c.12,0,.23.02.34.07.29.13,29.8,12.72,61.94,18.84,29.45,5.61,67.21,6.79,79.83-19.45,4.06-8.45,3.98-18.71-.24-30.5-13.61-38.01-68.53-85.59-109.3-104.51-36.04-16.73-80.92-14.96-81.37-14.94-.03,0-.07,0-.1,0-.12-.01-3.27-.24-8.59-.24Z"/>
        </g>
        <path class="cls-2" d="m525.43,343.12c-9.8,0-85-9.36-88.19-9.76-.45-.06-.77-.46-.71-.91.06-.45.46-.77.91-.71.78.1,78.29,9.75,87.99,9.75,2.29,0,3.8-.6,4.51-1.78,1.31-2.2-.27-6.18-1-7.53-.21-.4-.06-.89.33-1.11.4-.21.89-.06,1.11.33.12.23,3.02,5.71.96,9.14-1.02,1.71-3.01,2.57-5.91,2.57Z"/>
        <path class="cls-2" d="m208.83,343.12c-2.9,0-4.89-.87-5.91-2.57-2.06-3.44.84-8.91.96-9.14.21-.4.71-.55,1.11-.33.4.21.55.71.34,1.11-.72,1.35-2.31,5.34-1,7.53.7,1.18,2.22,1.77,4.5,1.77,9.7,0,87.21-9.65,87.99-9.75.45-.06.86.26.91.71.06.45-.26.86-.71.91-3.2.4-78.39,9.76-88.19,9.76Z"/>
      </g>
      <g>
        <rect class="cls-2" x="282.02" y="379.54" width="169.48" height="95.46"/>
        <path class="cls-5" d="m449.21,387.01h-162.23c-3.05,0-5.69-2.1-6.37-5.07l-21.53-93.58c-.94-4.1,2.17-8.01,6.37-8.01h205.28c4.2,0,7.31,3.91,6.37,8.01l-21.53,93.58c-.68,2.97-3.33,5.07-6.37,5.07Z"/>
        <g>
          <g>
            <path class="cls-2" d="m516.58,671.41l-91.06,10.6c-24.98,2.91-49.51-8.48-63.83-29.65l-125.43-185.34c-24.11-35.63-2.38-84.72,39.68-89.62,20.2-2.35,40.05,6.7,51.86,23.65l156.79,224.91,36.73,20.23c11.34,6.25,8.06,23.74-4.74,25.23Z"/>
            <path class="cls-3" d="m417.76,683.28c-22.5,0-43.74-11.23-56.75-30.46l-125.43-185.34c-11.66-17.23-13.43-38.86-4.72-57.84,8.44-18.4,25.25-30.75,44.98-33.04,20.48-2.38,40.65,6.81,52.63,23.99l156.68,224.75,36.57,20.14c5.53,3.05,8.31,9.09,7.07,15.39-1.22,6.19-5.97,10.66-12.11,11.37l-91.06,10.6c-2.62.31-5.25.46-7.85.46Zm-135.51-305.43c-2.07,0-4.14.12-6.22.36-19.16,2.23-35.49,14.23-43.68,32.1-8.47,18.46-6.75,39.49,4.59,56.25l125.43,185.34c14.18,20.95,38.34,32.18,63.06,29.3l91.06-10.6c5.42-.63,9.62-4.58,10.69-10.06,1.1-5.59-1.36-10.95-6.25-13.64l-36.73-20.23c-.11-.06-.2-.15-.28-.25l-156.79-224.91c-10.42-14.94-27.2-23.66-44.88-23.66Z"/>
          </g>
          <path class="cls-3" d="m384.88,664.08c-.27,0-.53-.13-.69-.37-.25-.38-.14-.89.24-1.13,54.72-35.44,99.63-37.45,100.08-37.46.47-.03.83.34.85.79.02.45-.34.83-.79.85-.44.02-44.94,2.02-99.25,37.2-.14.09-.29.13-.44.13Z"/>
        </g>
        <g>
          <g>
            <path class="cls-2" d="m226.12,671.69l91.15,9.82c25.01,2.69,49.44-8.9,63.59-30.19l123.92-186.4c23.82-35.83,1.69-84.74-40.4-89.28-20.22-2.18-40,7.04-51.67,24.09l-154.96,226.23-36.57,20.54c-11.29,6.34-7.86,23.81,4.94,25.19Z"/>
            <path class="cls-3" d="m324.46,682.72c-2.41,0-4.84-.13-7.28-.39l-91.15-9.82c-6.14-.66-10.93-5.08-12.2-11.27-1.29-6.29,1.44-12.36,6.94-15.45l36.4-20.45,154.85-226.07c11.84-17.28,31.94-26.64,52.43-24.44,19.74,2.13,36.66,14.33,45.24,32.65,8.87,18.91,7.28,40.56-4.25,57.89l-123.92,186.4c-12.97,19.5-34.36,30.94-57.08,30.94Zm-98.25-11.84l91.15,9.82c24.73,2.67,48.81-8.76,62.82-29.83l123.92-186.4c11.21-16.86,12.75-37.9,4.13-56.29-8.34-17.8-24.77-29.65-43.94-31.72-19.9-2.14-39.41,6.95-50.91,23.74l-154.96,226.23c-.07.1-.16.19-.27.25l-36.57,20.54c-4.87,2.74-7.29,8.11-6.14,13.7,1.12,5.47,5.35,9.38,10.77,9.97Z"/>
          </g>
          <path class="cls-3" d="m357.7,664.08c-.15,0-.31-.04-.44-.13-54.31-35.18-98.8-37.18-99.25-37.2-.45-.02-.8-.4-.79-.85.02-.45.39-.82.85-.79.45.02,45.36,2.02,100.08,37.46.38.25.49.75.24,1.13-.16.24-.42.37-.69.37Z"/>
        </g>
      </g>
      <g>
        <path class="cls-2" d="m400.69,208.9s16.17-46.49-3.91-44.09c0,0-11.1-21.33-30.56-5.33,0,0-12.52-10.4-22.92,8,0,0-11.37-2.4-12.79,14.67-1.42,17.07,8.7,32.09,8.7,32.09l61.47-5.33Z"/>
        <g>
          <path class="cls-3" d="m370.85,264.91c-10.31,0-18.41-8.84-17.51-19.13l1.59-33.69h31.83l1.59,33.69c.9,10.28-7.19,19.13-17.51,19.13Z"/>
          <path class="cls-2" d="m370.85,265.73c-5.14,0-10.08-2.18-13.56-5.97-3.48-3.8-5.21-8.92-4.76-14.05l1.59-33.66c.02-.44.38-.78.82-.78h31.83c.44,0,.8.34.82.78l1.59,33.69c.45,5.1-1.29,10.22-4.77,14.01-3.48,3.79-8.42,5.97-13.56,5.97Zm-15.13-52.81l-1.56,32.91c-.41,4.71,1.17,9.37,4.34,12.83,3.17,3.46,7.67,5.44,12.35,5.44s9.19-1.98,12.35-5.44c3.17-3.46,4.75-8.12,4.34-12.8l-1.56-32.94h-30.27Z"/>
        </g>
        <g>
          <g>
            <path class="cls-3" d="m398.45,205.23c-10.59.27-8.24-15.8-8.24-15.8-9.99,12.53-21.98,2.13-21.98,2.13-17.49,16.53-26.7-3.07-25.48,2.13,1.83,7.8-1.45,12.07-2.75,13.41-4.48-2.85-11.73-5.85-10.74,5.46,1.1,12.64,9.11,7.84,12.6,5.1,3.47,11.32,10.67,23.68,27.58,23.15,16.33-.51,24.53-12.44,27.74-24.07,3.82,2.7,10.64,5.78,11.65-5.81.96-11-5.87-8.47-10.37-5.69Z"/>
            <path class="cls-2" d="m368.38,241.64c-12.98,0-22.05-7.61-26.96-22.64-2.61,1.86-5.97,3.49-8.78,2.28-2.39-1.04-3.8-3.94-4.21-8.65-.38-4.42.39-7.15,2.38-8.35,2.03-1.23,5.07-.64,9.03,1.77,1.43-1.7,3.65-5.58,2.1-12.16-.13-.55-.32-1.38.34-1.78.67-.4,1.2.07,2.18.93,2.97,2.62,10.88,9.58,23.2-2.06.3-.29.78-.3,1.1-.02.05.04,5.13,4.36,11.18,3.8,3.57-.33,6.81-2.29,9.63-5.82.23-.29.62-.39.96-.24.34.15.54.5.48.87-.01.09-1.23,8.82,2.35,12.86,1.2,1.35,2.78,2.01,4.81,2.01h.03c3.99-2.42,7.04-3.01,9.07-1.76,1.96,1.21,2.73,3.94,2.35,8.34-.4,4.63-1.78,7.52-4.1,8.6-2.51,1.16-5.53-.07-7.88-1.56-2.34,7.68-9.37,23-28.19,23.59-.36.01-.72.02-1.07.02Zm-26.53-24.8c.08,0,.16.01.24.04.26.08.46.28.54.54,4.78,15.6,13.56,22.97,26.77,22.57,17.99-.56,24.62-14.95,26.98-23.47.07-.26.26-.46.51-.55.25-.09.53-.05.75.1,1.71,1.21,4.93,3.1,7.2,2.04,1.75-.81,2.81-3.25,3.16-7.26.31-3.62-.23-5.97-1.58-6.8-1.45-.89-4.13-.23-7.54,1.88-.12.08-.26.12-.41.12-2.65.07-4.76-.79-6.33-2.56-2.82-3.18-3.08-8.54-2.96-11.68-2.72,2.73-5.77,4.26-9.11,4.57-5.56.52-10.22-2.54-11.81-3.73-12.59,11.5-21.23,4.8-24.5,1.95,1.37,7.41-1.74,11.59-3.19,13.08-.27.28-.7.33-1.02.12-3.58-2.28-6.38-3.03-7.89-2.12-1.36.82-1.91,3.18-1.6,6.81.35,4.06,1.44,6.51,3.23,7.29,2.54,1.1,6.13-1.26,8.05-2.76.15-.12.32-.17.5-.17Zm56.6-11.61h0,0Z"/>
          </g>
          <path class="cls-2" d="m400.51,213.09c-.19,0-.39-.07-.55-.21-.34-.3-.37-.82-.06-1.16l4.62-5.16c.3-.34.82-.36,1.16-.06.34.3.37.82.06,1.16l-4.62,5.16c-.16.18-.39.27-.61.27Z"/>
          <path class="cls-2" d="m338.06,214.73c-.22,0-.45-.09-.61-.27l-4.62-5.16c-.3-.34-.27-.85.06-1.16.34-.3.85-.27,1.16.06l4.62,5.16c.3.34.27.85-.06,1.16-.16.14-.35.21-.55.21Z"/>
        </g>
      </g>
    </g>
    <g>
      <path class="cls-2" d="m121.06,446.75c-.53,0-1.05-.05-1.57-.14-9.05-1.61-12.8-16.59-12.95-17.22-.11-.44.16-.88.6-.99.43-.11.88.16.99.6.04.15,3.65,14.58,11.65,16,5.1.92,11.04-3.62,17.64-13.46,13.29-19.83,11.19-33.64,5.35-39.44-5.98-5.94-16.16-5.25-26.58,1.82-.37.25-.88.16-1.14-.22-.25-.37-.16-.88.22-1.14,11.1-7.54,22.08-8.16,28.65-1.63,6.28,6.24,8.7,20.86-5.14,41.51-6.37,9.5-12.32,14.3-17.72,14.3Z"/>
      <g>
        <path class="cls-3" d="m113.11,451.39c3.91-20.51,6.64-45.18,7.74-72.19H46.51c1.11,27.01,3.83,51.69,7.74,72.19,1.87,9.78,10.4,16.87,20.36,16.87h18.15c9.95,0,18.49-7.08,20.36-16.87Z"/>
        <path class="cls-2" d="m92.75,469.08h-18.15c-10.32,0-19.22-7.37-21.16-17.53-3.99-20.95-6.68-45.95-7.76-72.31,0-.22.07-.44.23-.6.15-.16.37-.25.59-.25h74.34c.22,0,.44.09.59.25.15.16.24.38.23.6-1.08,26.36-3.76,51.36-7.76,72.31-1.94,10.16-10.84,17.53-21.16,17.53Zm-45.39-89.06c1.1,25.97,3.76,50.58,7.69,71.22,1.79,9.39,10.01,16.2,19.55,16.2h18.15c9.54,0,17.76-6.81,19.55-16.2,3.94-20.65,6.6-45.26,7.69-71.22H47.36Z"/>
      </g>
    </g>
    <g>
      <ellipse class="cls-4" cx="691.08" cy="401.68" rx="86.72" ry="86.78"/>
      <path class="cls-2" d="m691.08,475.03c-40.42,0-73.3-32.9-73.3-73.35,0-26.36,14.25-50.83,37.2-63.85.39-.22.89-.08,1.12.31.22.39.08.89-.31,1.12-22.43,12.73-36.37,36.65-36.37,62.43,0,39.54,32.15,71.71,71.67,71.71,19.14,0,37.14-7.46,50.68-21,.32-.32.84-.32,1.16,0,.32.32.32.84,0,1.16-13.84,13.85-32.25,21.48-51.83,21.48Z"/>
      <path class="cls-2" d="m690.88,402.75c-.23,0-.47-.1-.63-.29l-15.53-18.45c-.29-.35-.25-.86.1-1.15.35-.29.86-.25,1.15.1l15.11,17.95,55.26-27.8c.4-.2.9-.04,1.1.36.2.4.04.9-.36,1.1l-55.83,28.09c-.12.06-.24.09-.37.09Z"/>
    </g>
    <g>
      <g>
        <path class="cls-4" d="m83.27,237.44c1.08,2.7,4.15,4.01,6.85,2.92l31.14-12.51c2.7-1.08,4.01-4.15,2.92-6.85-3.03-7.54-3.11-15.97-.12-23.52,3.84-9.72,4.12-20.86-.08-31.33-8.72-21.72-33.4-32.24-55.1-23.46-20.97,8.49-31.63,32.45-23.87,53.7,4.01,10.99,12.05,19.27,21.79,23.83,7.46,3.49,13.4,9.56,16.47,17.21Z"/>
        <path class="cls-3" d="m123.28,227.07l-35.16,14.13,35.16-14.13Z"/>
        <g>
          <path class="cls-3" d="m88.12,241.2l6.28,15.64c3.9,9.72,14.93,14.43,24.64,10.53,9.71-3.9,14.42-14.94,10.52-24.65l-6.28-15.64-35.16,14.13Z"/>
          <path class="cls-2" d="m111.98,269.56c-2.63,0-5.26-.53-7.76-1.6-4.85-2.07-8.61-5.92-10.58-10.82l-6.28-15.64c-.17-.42.04-.9.45-1.06.42-.17.9.04,1.06.45l6.28,15.64c1.8,4.5,5.25,8.02,9.7,9.92,4.45,1.9,9.38,1.96,13.87.15,9.28-3.73,13.79-14.31,10.07-23.59l-6.28-15.64c-.17-.42.04-.9.45-1.06.42-.17.9.03,1.06.45l6.28,15.64c4.06,10.12-.86,21.65-10.97,25.72-2.38.96-4.88,1.44-7.37,1.44Z"/>
        </g>
        <path class="cls-2" d="m89.75,253.92c-.27,0-.53-.13-.68-.37-.25-.38-.14-.89.23-1.13l37.22-24.5c.38-.25.89-.14,1.13.23.25.38.14.89-.23,1.13l-37.22,24.5c-.14.09-.29.13-.45.13Z"/>
        <path class="cls-2" d="m92.91,261.8c-.27,0-.53-.13-.68-.37-.25-.38-.14-.89.23-1.13l37.22-24.5c.38-.25.89-.14,1.13.23.25.38.14.89-.23,1.13l-37.22,24.5c-.14.09-.29.13-.45.13Z"/>
        <path class="cls-2" d="m98.56,268.04c-.27,0-.53-.13-.68-.37-.25-.38-.14-.89.23-1.13l34.17-22.48c.38-.25.89-.14,1.13.23.25.38.14.89-.23,1.13l-34.17,22.48c-.14.09-.29.14-.45.14Z"/>
        <path class="cls-2" d="m92.29,228.48c-.28,0-.54-.14-.7-.39l-25-40.93c-.16-.26-.16-.58,0-.85.16-.26.44-.42.75-.4l11.91.62,3.56-7.87c.17-.37.57-.55.96-.45l9.25,2.53,8.02-7.8c.22-.21.53-.29.82-.19.29.09.5.34.56.63l8.43,46.98c.08.44-.22.87-.66.95-.44.08-.87-.22-.95-.66l-8.16-45.46-7.25,7.05c-.21.2-.51.28-.79.2l-9.03-2.47-3.5,7.74c-.14.31-.44.5-.79.48l-10.92-.57,24.19,39.61c.24.39.11.89-.27,1.12-.13.08-.28.12-.43.12Z"/>
      </g>
      <g>
        <path class="cls-2" d="m131.98,163.34c-.32,0-.63-.19-.76-.51-.17-.42.03-.9.45-1.06l34.56-13.89c.42-.17.9.04,1.06.45.17.42-.03.9-.45,1.06l-34.56,13.89c-.1.04-.2.06-.31.06Z"/>
        <path class="cls-2" d="m.82,216.05c-.32,0-.63-.19-.76-.51-.17-.42.03-.9.45-1.06l36.38-14.62c.42-.17.9.04,1.06.45.17.42-.03.9-.45,1.06L1.12,215.99c-.1.04-.2.06-.31.06Z"/>
        <path class="cls-2" d="m104.12,134.85c-.11,0-.22-.02-.32-.07-.42-.18-.61-.66-.43-1.07l14.62-34.27c.18-.42.66-.61,1.07-.43.42.18.61.66.43,1.07l-14.62,34.27c-.13.31-.44.5-.75.5Z"/>
        <path class="cls-2" d="m48.62,264.93c-.11,0-.22-.02-.32-.07-.42-.18-.61-.66-.43-1.07l15.4-36.08c.18-.42.66-.61,1.07-.43.42.18.61.66.43,1.07l-15.4,36.08c-.13.31-.44.5-.75.5Z"/>
        <path class="cls-2" d="m165.8,217.84c-.11,0-.22-.02-.32-.07l-34.25-14.63c-.42-.18-.61-.66-.43-1.07.18-.42.66-.61,1.07-.43l34.25,14.63c.42.18.61.66.43,1.07-.13.31-.44.5-.75.5Z"/>
        <path class="cls-2" d="m37.62,163.07c-.11,0-.22-.02-.32-.07L1.24,147.6c-.42-.18-.61-.66-.43-1.07.18-.42.66-.61,1.07-.43l36.06,15.4c.42.18.61.66.43,1.07-.13.31-.44.5-.75.5Z"/>
        <path class="cls-2" d="m65.01,136.24c-.32,0-.63-.19-.76-.51l-14.61-36.41c-.17-.42.04-.9.45-1.06.42-.17.9.04,1.06.45l14.61,36.41c.17.42-.04.9-.45,1.06-.1.04-.2.06-.3.06Z"/>
      </g>
    </g>
  </g>
  <path class="cls-1" d="m356.66,340.84c1.56-.62,3.14-1.24,4.55-2.24,1.41-1,2.66-2.42,3.23-4.21.58-1.79.38-3.97-.74-5.34-1.48-1.82-4.17-1.73-5.98-.32-2.2,1.72-3.25,5.08-2.76,8.08.48,3,2.36,5.57,4.72,6.94,0,0,3.45,2.01,7.74.98,5.89-1.42,10.45-8.97,11.25-18.79"/>
</svg>